<svg width="651" height="699" viewBox="0 0 651 699" fill="none" xmlns="http://www.w3.org/2000/svg">
<g id="intro page 1" clip-path="url(#clip0_2_2)">
<g id="Group 221">
<path id="Path 2939" d="M363.054 676.966H376.996L383.63 622.941H363.052L363.054 676.966Z" fill="#FFB6B6"/>
<path id="Path 2940" d="M359.498 690.54H404.455V689.969C404.455 685.307 402.611 680.836 399.33 677.54C396.049 674.243 391.598 672.391 386.958 672.391H359.498V690.54Z" fill="#2F2E41"/>
<path id="Path 2941" d="M256.05 669.327L269.74 671.982L286.452 620.202L266.244 616.283L256.05 669.327Z" fill="#FFB6B6"/>
<path id="Path 2942" d="M250 681.98L294.142 690.543L294.25 689.982C295.129 685.404 294.163 680.663 291.563 676.801C288.964 672.939 284.943 670.273 280.387 669.389L253.426 664.159L250 681.98Z" fill="#2F2E41"/>
<path id="Path 2943" d="M384.916 221.039L376.815 236.653L316.14 223.21L322.787 192.937C328.048 168.975 349.139 151.67 372.992 156.955C396.846 162.24 407.975 185.66 402.714 209.622L392.937 240.222L383.044 238.03L384.916 221.039Z" fill="#2F2E41"/>
<path id="Path 2944" d="M406.552 393.253C406.552 393.253 412.524 423.253 404.561 467.253C396.597 511.253 394.606 530.253 394.606 530.253C394.606 530.253 400.579 537.253 396.597 541.253C392.615 545.253 396.597 553.253 396.597 553.253L387.638 650.253L356.778 645.253L360.76 554.253C360.76 554.253 356.778 546.253 358.769 544.253C360.76 542.253 356.778 530.253 356.778 530.253L351.801 435.253L320.941 539.253C320.941 539.253 323.928 543.253 320.941 546.253C317.955 549.253 311.982 564.253 311.982 564.253L292.073 634.253L260.217 628.253L278.136 548.253C278.136 548.253 276.145 543.253 279.131 540.253C280.002 539.335 280.639 538.218 280.986 536.999C281.332 535.78 281.379 534.494 281.122 533.253C281.122 533.253 278.136 530.253 282.118 526.253C286.1 522.253 288.091 506.253 288.091 506.253C288.091 506.253 291.077 399.253 301.032 393.253C310.986 387.253 406.552 393.253 406.552 393.253Z" fill="#2F2E41"/>
<path id="Ellipse 569" d="M361.539 227.791C376.933 227.791 389.413 215.255 389.413 199.791C389.413 184.327 376.933 171.791 361.539 171.791C346.146 171.791 333.666 184.327 333.666 199.791C333.666 215.255 346.146 227.791 361.539 227.791Z" fill="#FFB6B6"/>
<path id="Path 2945" d="M322.258 235.633C322.258 235.633 302.026 233.252 296.053 239.252L302.026 360.252C302.026 360.252 298.044 363.252 300.035 370.252C301.191 374.846 301.191 379.657 300.035 384.252C300.035 384.252 294.062 391.252 297.049 394.252C300.035 397.252 407.546 395.252 407.546 395.252C407.546 395.252 411.528 388.252 405.555 384.252C399.582 380.252 402.569 369.252 402.569 369.252C402.569 369.252 404.56 366.252 399.582 361.252C394.605 356.252 390.623 315.252 390.623 315.252L403.564 265.252C403.564 265.252 390.538 250.481 375.648 249.367L322.258 235.633Z" fill="#E6E6E6"/>
<path id="Path 2950" d="M322.258 235.633C322.258 235.633 302.026 233.252 296.053 239.252L302.026 360.252C302.026 360.252 298.044 363.252 300.035 370.252C301.191 374.846 301.191 379.657 300.035 384.252C300.035 384.252 294.062 391.252 297.049 394.252C300.035 397.252 407.546 395.252 407.546 395.252C407.546 395.252 411.528 388.252 405.555 384.252C399.582 380.252 402.569 369.252 402.569 369.252C402.569 369.252 404.56 366.252 399.582 361.252C394.605 356.252 390.623 315.252 390.623 315.252L403.564 265.252C403.564 265.252 390.538 250.481 375.648 249.367L322.258 235.633Z" fill="#D0CDE1"/>
<path id="Path 2946" d="M390.487 265.939L405.909 265.251C405.909 265.251 414.869 283.251 415.864 299.251L421.346 358.939L386 364.251L390.487 265.939Z" fill="#D0CDE1"/>
<path id="Path 2947" d="M385.42 201.18L395.773 187.798C396.383 184.98 395.859 182.035 394.314 179.604C392.769 177.174 390.329 175.457 387.528 174.829L348.414 166.162C345.609 165.548 342.677 166.075 340.258 167.627C337.839 169.179 336.129 171.63 335.503 174.444L335.481 174.544L338.282 190.703L338.774 190.615C363.049 186.267 369.963 187.797 385.023 200.841L385.42 201.18Z" fill="#2F2E41"/>
<path id="Path 2948" d="M281.246 414.993L283.112 336.253L285.103 280.253L308.995 283.253L296.164 417.098C297.513 418.799 298.33 420.865 298.511 423.033C298.692 425.201 298.228 427.374 297.18 429.277C296.131 431.181 294.544 432.729 292.619 433.727C290.694 434.724 288.518 435.126 286.366 434.881C284.214 434.636 282.183 433.756 280.529 432.351C278.875 430.947 277.673 429.081 277.075 426.99C276.476 424.899 276.509 422.677 277.168 420.605C277.827 418.532 279.082 416.702 280.776 415.347C280.93 415.224 281.086 415.106 281.246 414.992V414.993Z" fill="#FFB6B6"/>
<path id="Path 2949" d="M313.481 240.939L296.053 239.251C296.053 239.251 293.067 239.251 290.081 249.251C287.094 259.251 270.677 364.939 270.677 364.939L307.005 368.251L313.481 240.939Z" fill="#D0CDE1"/>
</g>
<g id="movinghand">
<path id="Path 2938" d="M416.478 358.187C413.078 361.113 407.473 360.726 404.37 357.35V357.35C401.595 354.33 401.854 350.003 404.962 347.448L430.798 326.208L466.899 290.281C469.275 287.917 469.838 284.441 471.431 281.593V281.593C472.288 280.061 473.686 278.812 475.417 278.033C477.148 277.254 479.119 276.987 481.037 277.271C482.956 277.555 484.718 278.375 486.062 279.609C487.406 280.843 488.26 282.425 488.497 284.12C488.734 285.814 488.341 287.531 487.377 289.013C486.413 290.496 484.928 291.666 483.145 292.348V292.348C480.02 293.545 476.371 294.606 474.743 297.251L463.423 315.648C461.575 318.651 459.234 321.383 456.475 323.758L416.478 358.187Z" fill="#FFB6B6"/>
</g>
<g id="galaxy">
<g id="ring">
<path id="Vector" d="M150.114 198.32C88.5605 167.672 45.9238 132.604 53.0473 118.483C57.3181 110.018 78.2134 110.971 110.375 121.1C110.49 121.135 110.598 121.193 110.69 121.27C110.783 121.347 110.86 121.441 110.916 121.547C110.972 121.653 111.007 121.769 111.017 121.889C111.028 122.008 111.015 122.129 110.978 122.243C110.942 122.357 110.883 122.463 110.805 122.555C110.727 122.646 110.632 122.721 110.525 122.776C110.417 122.831 110.3 122.864 110.18 122.874C110.059 122.883 109.938 122.869 109.823 122.832C79.5269 113.291 58.3994 111.938 54.6857 119.299C48.2439 132.068 92.3198 167.511 150.933 196.696C209.547 225.88 264.507 239.749 270.949 226.98C274.678 219.587 260.84 203.509 234.833 185.019C234.735 184.95 234.652 184.862 234.588 184.76C234.524 184.659 234.48 184.546 234.46 184.428C234.441 184.31 234.444 184.189 234.471 184.073C234.499 183.956 234.549 183.846 234.619 183.749C234.689 183.652 234.778 183.569 234.88 183.506C234.982 183.443 235.096 183.401 235.215 183.382C235.334 183.363 235.456 183.367 235.573 183.394C235.69 183.422 235.801 183.472 235.899 183.542C263.502 203.167 276.875 219.297 272.587 227.795C265.464 241.916 211.667 228.969 150.114 198.32Z" fill="#FCA3A3"/>
</g>
<path id="Vector_2" d="M93.2634 175.947C94.0619 188.177 98.0825 199.989 104.923 210.201C111.763 220.414 121.184 228.668 132.241 234.14C143.299 239.611 155.606 242.107 167.932 241.378C180.257 240.648 192.169 236.72 202.474 229.984C165.103 213.97 128.645 195.93 93.2634 175.947Z" fill="#FCA3A3"/>
<path id="Vector_3" d="M217.274 215.624C224.667 207.626 230.081 198.028 233.086 187.588C236.091 177.149 236.606 166.154 234.589 155.476C232.571 144.797 228.078 134.728 221.464 126.064C214.85 117.399 206.297 110.379 196.482 105.557C186.667 100.736 175.859 98.2458 164.914 98.2844C153.968 98.3229 143.186 100.889 133.421 105.779C123.655 110.67 115.174 117.75 108.649 126.461C102.123 135.171 97.7328 145.272 95.8246 155.965C133.545 180.976 174.369 201.029 217.274 215.624V215.624Z" fill="#FCA3A3"/>
<g id="circles">
<path id="Vector_4" d="M138.378 164.005C145.307 167.085 153.432 164.011 156.525 157.14C159.618 150.268 156.508 142.201 149.579 139.122C142.65 136.042 134.525 139.116 131.432 145.987C128.339 152.858 131.449 160.925 138.378 164.005Z" fill="white"/>
<path id="Vector_5" d="M135.289 228.534C139.446 230.382 144.321 228.538 146.177 224.415C148.033 220.292 146.167 215.452 142.009 213.604C137.852 211.756 132.977 213.601 131.121 217.723C129.266 221.846 131.131 226.686 135.289 228.534Z" fill="white"/>
<path id="Vector_6" d="M190.185 152.202C194.342 154.05 199.217 152.206 201.073 148.083C202.928 143.96 201.063 139.12 196.905 137.272C192.748 135.424 187.873 137.268 186.017 141.391C184.161 145.514 186.027 150.354 190.185 152.202Z" fill="white"/>
</g>
</g>
</g>
<defs>
<clipPath id="clip0_2_2">
<rect width="650.502" height="698.685" fill="white"/>
</clipPath>
</defs>
</svg>
